<svg width="28" height="28" viewBox="0 0 28 28" fill="none" xmlns="http://www.w3.org/2000/svg">
<path fill-rule="evenodd" clip-rule="evenodd" d="M23.4473 14.2254C23.4473 13.5222 23.3847 12.8461 23.2684 12.197H14V16.0329H19.2962C19.0681 17.2725 18.3748 18.3228 17.3325 19.0259V21.5141H20.5129C22.3738 19.7877 23.4473 17.2455 23.4473 14.2254Z" fill="#4285F4"/>
<path fill-rule="evenodd" clip-rule="evenodd" d="M14.0003 23.9167C16.6574 23.9167 18.885 23.0287 20.5133 21.5141L17.3328 19.0259C16.4516 19.6209 15.3244 19.9725 14.0003 19.9725C11.4372 19.9725 9.2677 18.2281 8.49384 15.8842H5.20605V18.4535C6.82534 21.6944 10.1534 23.9167 14.0003 23.9167Z" fill="#34A853"/>
<path fill-rule="evenodd" clip-rule="evenodd" d="M8.49368 15.8842C8.29686 15.2892 8.18504 14.6537 8.18504 14.0001C8.18504 13.3465 8.29686 12.7109 8.49368 12.1159V9.54657H5.2059C4.5394 10.8853 4.15918 12.3999 4.15918 14.0001C4.15918 15.6003 4.5394 17.1148 5.2059 18.4536L8.49368 15.8842Z" fill="#FBBC05"/>
<path fill-rule="evenodd" clip-rule="evenodd" d="M14.0003 8.02751C15.4451 8.02751 16.7424 8.52785 17.7623 9.5105L20.5848 6.66622C18.8805 5.06603 16.6529 4.08337 14.0003 4.08337C10.1534 4.08337 6.82534 6.30561 5.20605 9.54656L8.49384 12.1159C9.2677 9.77194 11.4372 8.02751 14.0003 8.02751Z" fill="#EA4335"/>
</svg>
