<svg width="167" height="167" viewBox="0 0 167 167" fill="none" xmlns="http://www.w3.org/2000/svg">
<path fill-rule="evenodd" clip-rule="evenodd" d="M40.2837 33.2102C43.3028 26.9132 30.5363 19.5811 27.431 24.9293C24.3256 30.1911 18.805 43.5614 32.3478 48.4783C45.8906 53.3951 70.9923 26.7407 84.6214 26.827C115.503 26.9995 105.151 70.2158 87.813 75.6502C70.4748 81.0846 66.0755 72.6311 62.1938 70.3021C58.2258 67.8005 49.5136 69.4395 46.667 75.5639C43.7341 81.6021 57.1044 90.7457 65.8167 88.4167C77.8069 82.206 93.5062 78.238 106.531 77.5479C128.442 64.4364 132.496 28.7247 105.41 19.7537C81.2573 11.8177 70.1297 30.7087 48.1334 36.8332C40.025 39.1622 37.1784 39.5072 40.2837 33.2102Z" fill="#960012"/>
<path fill-rule="evenodd" clip-rule="evenodd" d="M101.442 80.9123C92.126 81.4299 80.6535 84.449 72.6313 88.5895C71.4236 89.2795 71.8549 90.1421 72.4587 90.746C76.513 94.5414 79.1008 93.42 81.9474 98.3368C84.2764 102.046 85.3115 108.084 87.468 110.758C89.6245 113.519 93.3337 115.848 94.8001 120.074C96.2665 124.215 94.5413 128.528 96.094 132.927C97.5604 137.326 100.752 142.243 103.599 146.039C111.362 156.39 118.522 153.802 115.761 148.713C113.001 143.537 110.068 134.48 108.947 129.563C107.912 124.732 109.637 118.177 108.429 113.346C107.222 108.516 102.909 106.877 102.046 101.27C101.183 96.1803 102.477 89.0208 102.909 82.6375C102.995 81.6024 103.081 80.826 101.442 80.9123Z" fill="#960012"/>
<path fill-rule="evenodd" clip-rule="evenodd" d="M76.6857 71.6823C75.2192 71.3373 74.0116 70.8197 73.2353 70.3884C71.3375 69.1808 71.3375 70.906 73.7528 72.2861C74.6154 72.8037 75.8231 73.3213 77.2032 73.6663C79.2735 74.1839 81.6888 74.3564 83.9315 73.7526C86.1743 73.235 88.1583 71.8548 89.7109 70.3022C90.7461 69.3533 91.5224 68.3182 92.04 67.3693C93.3339 65.0403 92.5575 63.4876 91.5224 65.4716C91.0911 66.2479 90.2285 67.2831 89.1934 68.3182L85.0529 52.8776C83.5002 47.0982 77.6345 42.3539 73.3215 42.0951C69.0948 41.8363 65.1268 42.8715 64.523 48.8234C63.9192 54.6891 69.2673 58.7433 73.4078 59.6059L76.6857 71.6823ZM71.3375 44.1654C75.478 43.1302 79.1872 45.5455 81.5162 48.5646C81.6025 48.7371 81.43 48.9959 81.2575 48.8234C78.8422 46.8394 74.7879 44.9417 71.4238 44.8554C70.82 44.8554 70.82 44.2516 71.3375 44.1654Z" fill="#960012"/>
<path fill-rule="evenodd" clip-rule="evenodd" d="M83.0685 0C128.873 0 166.051 37.1781 166.051 82.9822C166.051 128.873 128.873 166.051 83.0685 166.051C37.1781 166.051 0 128.873 0 82.9822C0 37.1781 37.1781 0 83.0685 0Z" fill="#AE1622"/>
<path fill-rule="evenodd" clip-rule="evenodd" d="M83.0685 0C37.1781 0 0 37.1781 0 82.9822C18.9772 45.5453 46.2354 15.5268 83.0685 0Z" fill="#960012"/>
<path fill-rule="evenodd" clip-rule="evenodd" d="M38.2995 26.3093C50.9797 15.0093 65.9027 6.21073 83.0685 0C37.1781 0 0 37.1781 0 82.9822C6.38325 66.9378 14.4054 52.9637 24.2391 40.9735C28.5521 35.7117 33.2964 30.7948 38.2995 26.3093Z" fill="#DE041E"/>
<path fill-rule="evenodd" clip-rule="evenodd" d="M83.0686 166.051C128.873 166.051 166.051 128.873 166.051 82.9824C147.16 120.419 119.902 150.524 83.0686 166.051Z" fill="#960012"/>
<path fill-rule="evenodd" clip-rule="evenodd" d="M166.051 82.9824C156.648 109.205 140.259 131.202 115.589 148.368C113.777 149.575 111.879 150.869 109.982 152.077C101.873 157.166 92.9023 161.91 83.0686 166.051C128.873 166.051 166.051 128.873 166.051 82.9824Z" fill="#DE041E"/>
<path fill-rule="evenodd" clip-rule="evenodd" d="M46.408 34.9352C49.3409 28.9832 37.2644 22.0824 34.4179 27.0855C31.485 32.0886 26.3094 44.5963 38.9896 49.1681C51.6699 53.7399 75.3051 28.8107 87.9854 28.897C116.969 29.0695 107.308 69.5254 91.0045 74.6148C74.7876 79.7041 70.6471 71.8545 66.9379 69.6117C63.2287 67.3689 55.1203 68.9216 52.36 74.5285C49.6859 80.2217 62.1936 88.8477 70.3021 86.6912C81.6021 80.7393 96.2663 77.1163 108.515 76.4263C129.045 64.1773 132.841 30.7084 107.48 22.3412C84.7937 14.8366 74.3563 32.5199 53.8264 38.2993C46.1492 40.4558 43.5614 40.8008 46.408 34.9352Z" fill="white"/>
<path fill-rule="evenodd" clip-rule="evenodd" d="M103.771 79.6179C94.9723 80.0492 84.276 82.8957 76.7714 86.7774C75.5638 87.3813 75.9951 88.2439 76.5989 88.8477C80.3943 92.3844 82.8096 91.3492 85.4837 95.921C87.7264 99.4577 88.6753 105.065 90.6593 107.566C92.7295 110.154 96.1799 112.397 97.5601 116.278C98.9402 120.16 97.3013 124.214 98.6815 128.355C100.148 132.495 103.167 137.067 105.841 140.69C113.087 150.351 119.815 147.936 117.227 143.192C114.553 138.275 111.879 129.821 110.844 125.163C109.809 120.591 111.448 114.553 110.327 109.981C109.205 105.496 105.151 103.857 104.288 98.6813C103.512 93.8508 104.72 87.2087 105.151 81.2568C105.237 80.2217 105.323 79.5316 103.771 79.6179Z" fill="white"/>
<path fill-rule="evenodd" clip-rule="evenodd" d="M80.4808 70.9918C79.1869 70.6468 77.9793 70.1292 77.2892 69.6979C75.564 68.5765 75.564 70.2155 77.8067 71.5094C78.6693 72.0269 79.7907 72.4582 80.9984 72.8033C82.9823 73.3208 85.3114 73.4934 87.3816 72.8895C89.4519 72.372 91.3496 71.0781 92.816 69.6979C93.6786 68.7491 94.4549 67.8002 94.9725 66.9376C96.1801 64.6948 95.4038 63.3147 94.4549 65.1261C94.0236 65.9025 93.2473 66.8513 92.2984 67.8002L88.4167 53.3085C86.9503 47.8741 81.4297 43.4749 77.4617 43.2161C73.4937 42.9573 69.6983 43.9062 69.1807 49.5131C68.5769 55.0337 73.58 58.8292 77.4617 59.6055L80.4808 70.9918ZM75.564 45.1138C79.4457 44.1649 82.9823 46.494 85.0526 49.2543C85.2251 49.4268 85.0526 49.6856 84.8801 49.5131C82.6373 47.6153 78.7556 45.8901 75.6502 45.8039C75.0464 45.8039 75.0464 45.2863 75.564 45.1138Z" fill="white"/>
<path fill-rule="evenodd" clip-rule="evenodd" d="M101.097 79.791C103.857 86.3467 100.838 92.73 102.477 99.027C103.685 103.771 107.566 106.532 109.205 111.276C110.931 116.02 109.464 121.713 110.672 126.975C111.276 129.563 112.397 132.065 113.605 134.48C112.397 131.029 111.362 127.579 110.844 125.164C109.809 120.592 111.448 114.554 110.327 109.982C109.205 105.496 105.151 103.858 104.289 98.6819C103.512 93.8514 104.72 87.2093 105.151 81.2574C105.237 80.2223 105.324 79.5322 103.771 79.6184C102.908 79.6184 101.96 79.7047 101.097 79.791ZM108.515 76.4268C129.045 64.1779 132.841 30.709 107.48 22.3418C105.841 21.7379 104.289 21.3929 102.736 21.0479C130.167 33.383 121.627 57.6221 103.167 76.9444C104.979 76.6856 106.79 76.5131 108.515 76.4268Z" fill="#F2F2F2"/>
</svg>
