    <svg
	width="40"
	height="40"
	viewBox="0 0 147 148"
	fill="#AE1622"
	xmlns="http://www.w3.org/2000/svg"
>
	<path
		fill="#AE1622"
		d="M24.4422 147.811C23.1946 147.704 21.9469 147.597 20.6993 147.481C16.8656 147.119 13.0814 146.493 9.42941 145.209C7.17379 144.41 5.03386 143.405 3.41443 141.569C2.99305 141.091 2.60469 140.564 2.29898 140.004C1.7454 139 1.96852 138.193 2.90217 137.476C3.80277 136.785 4.87687 136.48 5.94272 136.175C8.02483 135.599 10.1648 135.344 12.313 135.228C15.9319 135.031 19.5591 134.965 23.178 134.776C26.6813 134.594 30.201 134.487 33.663 133.812C35.6046 133.433 37.5133 132.956 39.2649 131.992C40.9339 131.078 42.3219 129.843 42.7598 127.966C43.6026 124.293 42.9912 121.617 40.0167 119.377C37.6537 117.607 35.0263 116.388 32.2336 115.548C29.2178 114.642 26.1442 113.926 23.0789 113.16C21.0876 112.658 19.1377 112.073 17.3613 111.027C16.502 110.525 15.6758 109.932 14.9487 109.257C13.6763 108.079 13.4119 106.556 13.8415 104.926C14.2794 103.254 15.2957 101.904 16.469 100.677C20.2366 96.7077 24.7148 93.7021 29.5235 91.133C38.356 86.4147 47.7916 83.4091 57.5412 81.2928C64.4238 79.7942 71.3807 78.8801 78.3872 78.1884C85.0549 77.5297 91.7309 77.6038 98.4152 77.5297C103.116 77.4803 107.793 77.085 112.395 75.9816C114.882 75.3805 116.939 74.1124 118.906 72.5561C121.401 70.5798 123.31 68.1671 124.698 65.3263C124.913 64.8816 125.16 64.4287 125.483 64.0582C126.516 62.8312 127.912 62.6665 129.217 63.5888C130.597 64.5605 131.456 65.9109 131.795 67.5413C132.572 71.288 131.82 74.697 129.383 77.7026C128.796 78.4272 128.201 79.1436 127.697 79.9259C126.54 81.7128 126.846 83.1456 128.598 84.3396C130.085 85.3524 131.803 85.7477 133.539 86.0359C135.588 86.3817 137.661 86.5793 139.711 86.9252C141.867 87.2875 143.817 88.1027 145.519 89.5437C147.163 90.9353 147.51 93.0845 146.196 94.6738C145.412 95.6372 144.519 96.543 143.561 97.3253C141.603 98.9063 139.413 100.15 137.182 101.302C134.571 102.661 131.919 103.929 129.374 105.395C127.829 106.284 126.425 107.421 125.02 108.532C123.83 109.479 123.632 110.747 124.425 112.081C124.97 113.004 125.598 113.885 126.276 114.708C128.176 117.03 128.077 119.105 126.243 121.535C125.351 122.72 124.186 123.733 123.012 124.664C119.385 127.529 115.18 129.11 110.668 129.925C107.487 130.502 104.265 130.724 101.034 130.79C99.638 130.823 98.2334 130.93 96.8371 130.897C93.3173 130.798 89.8058 130.642 86.2943 130.485C81.6674 130.271 77.0404 129.909 72.4052 130.057C68.3567 130.189 64.4155 130.864 60.7388 132.676C57.4586 134.29 54.8064 136.529 53.1291 139.84C52.6251 140.828 52.0963 141.808 51.551 142.771C50.5017 144.607 48.9483 145.843 46.8662 146.254C44.6189 146.699 42.3467 147.045 40.0746 147.349C38.4799 147.572 36.8688 147.662 35.2659 147.811C34.5223 147.918 33.9769 147.951 33.1424 147.967C32.9689 147.967 32.6302 148 32.2253 148C30.7133 148 29.2013 148 27.6893 148C27.301 148 26.8878 147.951 26.673 147.951C25.8054 147.934 25.351 147.901 24.4422 147.811ZM52.8813 118.694C55.4013 118.891 57.7065 118.62 59.9951 118.175C64.6634 117.277 69.1498 115.779 73.5124 113.909C74.1816 113.621 74.8592 113.481 75.5945 113.473C78.3955 113.432 81.1964 113.333 83.9973 113.275C87.3353 113.201 90.6651 112.971 93.97 112.501C96.9279 112.09 99.8446 111.505 102.646 110.451C104.785 109.652 106.752 108.574 108.313 106.853C109.363 105.7 110.065 104.382 110.206 102.842C110.445 100.174 109.826 97.6464 108.553 95.2996C106.694 91.8906 103.769 89.6755 100.249 88.1439C96.5644 86.5464 92.6646 86.0194 88.7152 85.8382C85.6663 85.7065 82.6093 85.7971 79.5687 86.1429C74.4626 86.7193 69.4225 87.6251 64.5477 89.2802C62.6639 89.9143 60.9123 90.7954 59.3755 92.0635C56.6489 94.3032 56.0127 97.9346 58.037 100.776C58.4749 101.385 58.9128 101.994 59.3589 102.604C60.2595 103.83 60.9205 105.164 61.2923 106.638C61.8955 109.002 61.6394 111.192 59.8547 113.012C59.0533 113.827 58.1939 114.593 57.2933 115.309C55.9053 116.437 54.4594 117.491 52.8813 118.694Z"
	/>
	<path
		fill="#AE1622"
		d="M0.165961 33.981C-0.174474 33.1335 0.0995593 32.2028 0.190896 31.9784C0.589454 30.9813 1.19557 30.1254 2.0342 29.4773C2.94757 28.7793 3.90246 28.1229 4.90716 27.5661C7.72198 25.9956 10.7859 25.0317 13.7751 23.885C15.9921 23.0292 18.1924 22.1317 20.3596 21.1429C21.9289 20.4283 23.191 19.2816 24.1708 17.8524C25.0178 16.6226 24.7022 15.8913 23.6809 15.0687C23.1827 14.6699 22.5766 14.3873 21.9788 14.1464C19.2885 13.0745 16.4405 12.5593 13.6256 11.9444C12.1393 11.6203 10.6696 11.2381 9.41585 10.3323C8.32812 9.55124 8.19527 8.52918 9.15845 7.59853C9.82271 6.9587 10.5949 6.37704 11.417 5.96156C13.6672 4.83148 16.0253 3.92575 18.4582 3.25269C22.2196 2.21401 26.0557 1.5908 29.9167 1.13378C32.5987 0.818019 35.289 0.635213 37.9875 0.460715C40.2876 0.319455 42.5958 0.277906 44.9042 0.186502C45.2695 0.169883 45.6349 0.178189 46.0085 0.169879C46.3739 0.153261 46.7475 0.136636 47.1129 0.111707C47.8519 0.07016 48.5908 0.020312 49.3215 0.00369309C49.9111 -0.00461636 50.4923 0.00369309 51.0818 0.00369309C51.3309 0.00369309 51.58 0.00369309 51.8291 0.00369309C52.3273 0.00369309 52.8255 0.00369309 53.3237 0.00369309C54.3201 0.00369309 55.3165 0.00369309 56.3129 0.00369309C57.3093 0.00369309 58.3057 0.00369309 59.3021 0.00369309C60.2985 0.00369309 61.2949 0.00369309 62.2913 0.00369309C63.2877 0.00369309 64.2841 0.00369309 65.2805 0.00369309C66.2769 0.00369309 67.2733 0.00369309 68.2697 0.00369309C69.2411 0.00369309 70.2209 0.00368852 71.1924 0.011998C72.1639 0.0203074 73.1271 0.012002 74.0986 0.120025C74.2896 0.144953 74.4722 0.153261 74.6632 0.169879C75.3026 0.219736 75.9502 0.269587 76.5896 0.319443C76.7639 0.336062 76.9466 0.344374 77.121 0.360993C78.1008 0.444088 79.0806 0.535493 80.0603 0.635206C81.0401 0.73492 82.0199 0.85126 82.9914 0.967592C83.9712 1.09223 84.9427 1.21686 85.9225 1.35812C86.894 1.49938 87.8738 1.64896 88.8453 1.80684C89.086 1.84839 94.3835 2.59624 94.6326 2.63779C100.08 3.53521 100.453 3.80111 105.751 5.41314C108.873 6.36872 111.812 7.73979 114.61 9.39337C118.098 11.4458 121.394 13.7807 124.541 16.3317C125.014 16.714 125.463 17.1544 125.861 17.6114C127.256 19.2234 127.373 21.5833 126.193 23.4529C125.164 25.0816 123.736 26.2948 122.1 27.2504C117.807 29.7681 113.141 30.9647 108.175 31.0561C105.751 31.0976 103.335 30.9896 100.943 30.6074C100.237 30.4911 99.5233 30.3165 98.8673 30.0423C98.1533 29.7432 98.0038 29.3028 98.2695 28.5549C98.4854 27.9484 98.7926 27.3667 99.0251 26.7601C99.4651 25.6217 99.9385 24.4833 100.304 23.32C100.927 21.3673 100.32 19.722 98.7178 18.5338C97.7464 17.8108 96.6337 17.2292 95.5128 16.7638C92.8889 15.6753 90.0991 15.2681 87.2925 15.0022C86.1467 14.8942 84.9925 14.8111 83.8383 14.7862C80.5419 14.7114 77.2954 15.1352 74.0488 15.6753C69.0336 16.5063 64.0101 17.279 58.9866 18.0352C54.0378 18.783 49.0808 19.5226 44.1154 20.1707C40.0634 20.7025 36.0695 21.4504 32.1586 22.5971C27.4423 23.9764 22.8921 25.7796 18.4498 27.8653C14.4227 29.7598 10.5534 31.9203 6.85016 34.3716C6.11117 34.8618 5.26422 34.8369 4.4588 34.9366C3.74472 35.028 3.00569 35.0114 2.2916 34.9449C1.46127 34.8701 0.647555 34.6956 0.116144 33.9312"
	/>
	<path
		fill="#AE1622"
		d="M90.0742 70.7441C86.8472 70.6048 83.6284 70.4655 80.4014 70.3344C79.1469 70.2852 77.8924 70.2525 76.6379 70.2361C73.8731 70.1869 71.1083 70.1132 68.3435 70.1214C59.8757 70.146 51.6638 71.6289 43.6994 74.4802C34.5549 77.7493 26.1531 82.3621 18.3951 88.1547C15.4322 90.3669 12.23 92.194 8.65632 93.2919C7.59991 93.6114 6.50225 93.808 5.41282 93.9719C4.48846 94.1112 4.02632 93.7343 4.00156 92.8085C3.98505 92.2186 4.10059 91.5959 4.30692 91.0469C5.97407 86.5079 8.26017 82.3375 11.9081 79.052C13.2864 77.8148 14.8545 76.7907 16.3566 75.701C17.6606 74.7587 19.0306 73.9067 20.3098 72.9399C23.1902 70.7605 23.3966 67.7371 22.4474 64.7876C22.1668 63.9027 21.3745 63.4521 20.4914 63.2882C19.7569 63.1489 18.9976 63.1571 18.2548 63.0506C17.1241 62.8785 15.9687 62.7802 14.8957 62.4443C13.2616 61.9281 12.8737 60.691 13.8559 59.2653C14.2768 58.659 14.8132 58.1019 15.3744 57.6185C16.7362 56.4551 18.2218 55.4719 19.8312 54.6525C20.4914 54.3166 21.1269 53.8742 21.6634 53.3662C22.8931 52.1946 23.0417 50.982 22.1999 49.5154C20.9619 47.3442 19.7486 45.1566 18.9811 42.7723C18.5437 41.4286 18.2136 40.0358 18.032 38.6347C17.8999 37.6106 18.3374 36.6356 19.0059 35.7835C20.4254 33.981 22.2659 32.7602 24.42 32.0802C27.2178 31.1953 30.0322 30.3432 32.8878 29.7041C38.4174 28.4669 43.9718 27.3445 49.5345 26.2629C53.7931 25.4354 58.0683 24.7062 62.3434 23.9934C66.7589 23.256 71.1909 22.6006 75.6559 22.3056C78.1236 22.1417 80.5995 21.9779 83.0672 22.0025C84.7013 22.0188 86.3437 22.3302 87.9531 22.6333C88.6629 22.7644 89.3727 23.1495 89.9917 23.551C90.883 24.1245 91.3947 25.0012 91.3287 26.0827C91.2461 27.5001 91.0976 28.9094 90.9738 30.3268C90.8747 31.4493 90.6684 32.5472 90.817 33.6942C91.0646 35.5295 92.1127 36.8814 93.9532 37.3484C96.0825 37.8892 98.2614 38.0366 100.457 37.84C102.38 37.6679 104.319 37.6188 106.234 37.3566C113.01 36.4389 119.645 34.9642 125.769 31.7852C127.453 30.9167 129.013 29.827 130.663 28.893C133.387 27.3608 136.218 26.0417 139.329 25.5092C140.336 25.3371 141.409 25.2961 142.416 25.4272C144.034 25.6403 144.504 27.0167 143.398 28.2293C142.804 28.8766 142.086 29.4665 141.318 29.8925C138.785 31.2936 136.193 32.5963 133.635 33.9564C131.555 35.0625 129.392 36.0457 127.626 37.6679C124.498 40.552 121.271 43.3377 118.779 46.8198C117.112 49.1549 115.981 51.662 115.824 54.587C115.733 56.242 115.428 57.8971 115.081 59.5193C114.314 63.1407 112.094 65.6724 108.825 67.3439C105.863 68.8596 102.677 69.6544 99.4003 70.1296C96.3136 70.5638 93.2021 70.6949 90.0742 70.7441ZM50.6156 60.568C51.3171 60.5762 52.2167 60.6254 52.91 60.5844C56.5166 60.3714 60.1398 60.183 63.7382 59.8307C70.1427 59.1998 76.2831 57.5939 81.986 54.546C84.3052 53.3007 86.4428 51.8259 88.0686 49.712C89.8596 47.3851 90.33 44.8698 89.3231 42.0759C88.0852 38.6429 85.7165 36.2259 82.5307 34.5463C78.8746 32.6209 74.9131 32.4079 70.902 32.7028C67.7823 32.9241 64.7286 33.5795 61.7244 34.4234C59.8592 34.9478 58.0352 35.5705 56.4836 36.7913C54.9898 37.9711 54.1893 39.4705 54.1727 41.3959C54.1562 42.7314 54.4451 44.0013 54.7505 45.2795C55.1962 47.1065 55.6501 48.9336 55.7326 50.8263C55.8317 53.1777 55.3282 55.267 53.4465 56.8729C52.7119 57.5038 52.0269 58.1838 51.3336 58.8557C50.9622 59.2162 50.5496 59.7815 50.6156 60.568Z"
	/>
	<path
		fill="#AE1622"
		d="M57 144.839C57.5848 143.667 58.3508 142.963 59.1662 142.298C61.5547 140.35 64.3304 139.099 67.279 138.196C71.249 136.977 75.3425 136.383 79.4936 136.074C83.6118 135.765 87.7382 135.829 91.8482 135.916C95.4887 135.995 99.1456 136.209 102.753 136.644C108.28 137.309 113.23 136.019 117.883 133.255C121.738 130.967 126.005 130.104 130.477 130.001C131.136 129.985 131.836 130.128 132.47 130.334C133.763 130.761 134.241 131.767 133.887 133.042C133.491 134.467 132.561 135.536 131.432 136.47C128.904 138.568 125.963 139.954 122.866 141.078C118.023 142.836 113.007 143.921 107.893 144.562C104.565 144.982 101.221 145.306 97.8772 145.584C95.8511 145.75 93.8002 145.774 91.7658 145.805C85.8521 145.892 79.9384 146.027 74.0329 145.995C69.4534 145.972 64.874 145.861 60.3192 145.386C59.265 145.275 58.2272 145.045 57 144.839Z"
	/>
</svg>