<svg width="1073" height="235" viewBox="0 0 1073 235" fill="#AE1622" xmlns="http://www.w3.org/2000/svg">
<path fill-rule="evenodd" clip-rule="evenodd" d="M705.806 115.95C708.135 118.02 710.205 120.953 711.499 125.007L742.725 221.101C745.055 228.26 744.796 228.26 755.751 228.26C766.792 228.26 766.62 228.26 768.862 221.187L785.424 170.121L801.986 221.101C804.315 228.26 804.056 228.26 815.098 228.26C826.139 228.26 825.88 228.26 828.123 221.187L859.349 125.007C860.643 120.953 863.662 117.071 864.697 115.95C865.819 114.828 869.787 110.257 864.697 110.257H864.007C849.17 110.257 849.17 110.257 843.822 125.007L819.842 198.759C817.513 206.35 812.855 206.523 810.267 198.759L794.568 150.54L790.169 137.083C787.84 129.493 783.181 129.32 780.594 136.997L776.194 150.54L760.581 198.759C758.252 206.35 753.594 206.523 751.006 198.759L727.026 125.007C722.799 110.257 722.886 110.257 706.669 110.257C701.666 110.257 703.046 113.362 705.806 115.95Z" fill="#AE1622"/>
<path fill-rule="evenodd" clip-rule="evenodd" d="M28.9234 26.929C34.2715 15.974 12.0164 3.2075 6.66828 12.4373C1.32015 21.6672 -8.25472 44.7849 15.208 53.3246C38.6708 61.7781 82.2321 15.6289 105.781 15.8015C159.349 16.0602 141.407 90.934 111.388 100.336C81.3695 109.739 73.6924 95.1608 66.8778 91.1065C59.977 86.8798 44.9678 89.7264 39.9647 100.164C34.9616 110.688 58.1655 126.646 73.1748 122.591C93.9635 111.723 121.135 104.908 143.736 103.7C181.69 81.0141 188.677 19.0794 141.752 3.55254C99.9154 -10.1628 80.6794 22.5298 42.6387 33.1397C28.4921 37.1077 23.5753 37.7978 28.9234 26.929Z" fill="#AE1622"/>
<path fill-rule="evenodd" clip-rule="evenodd" d="M134.937 109.566C118.72 110.429 98.9665 115.605 85.0786 122.85C82.8359 123.972 83.6985 125.525 84.7336 126.56C91.8069 133.115 96.2925 131.218 101.123 139.671C105.264 146.227 106.989 156.578 110.784 161.236C114.493 165.981 120.963 170.121 123.464 177.367C125.966 184.613 123.033 192.031 125.621 199.708C128.209 207.385 133.816 215.839 138.732 222.481C152.103 240.337 164.524 235.851 159.78 227.053C154.949 217.995 149.946 202.382 148.049 193.756C146.151 185.389 149.17 174.089 147.1 165.808C145.029 157.441 137.525 154.422 135.972 144.761C134.506 135.962 136.662 123.627 137.525 112.586C137.697 110.688 137.784 109.394 134.937 109.566Z" fill="#AE1622"/>
<path fill-rule="evenodd" clip-rule="evenodd" d="M91.9796 93.608C89.4781 93.0042 87.3216 92.0553 86.0277 91.279C82.7498 89.2088 82.8361 92.1416 86.8903 94.5569C88.443 95.5058 90.5995 96.3684 92.9285 96.9722C96.5514 97.921 100.778 98.1798 104.574 97.231C108.455 96.1958 111.992 93.7806 114.666 91.1065C116.391 89.4675 117.771 87.6561 118.634 86.1034C120.963 81.9629 119.583 79.3751 117.771 82.7393C116.995 84.1194 115.615 85.9309 113.717 87.7423L106.558 60.9155C103.884 50.9093 93.6186 42.8009 86.2865 42.2833C78.9544 41.852 71.9673 43.5772 70.9322 53.8421C69.8971 64.1071 79.2131 71.0942 86.3727 72.5606L91.9796 93.608ZM82.8361 45.82C89.9094 44.0085 96.4652 48.3215 100.347 53.4971C100.606 53.7559 100.347 54.1872 100.002 53.9284C95.8613 50.478 88.788 47.2001 82.9223 47.0276C81.8872 47.0276 81.8872 45.9925 82.8361 45.82Z" fill="#AE1622"/>
<path fill-rule="evenodd" clip-rule="evenodd" d="M304.266 110.257H335.06C349.811 110.257 356.194 117.157 356.194 131.908V139.758C356.194 154.508 356.194 154.508 341.444 154.508H329.281C326.176 154.508 325.141 149.85 329.195 149.85C334.543 149.85 341.444 149.936 341.444 139.758C341.444 124.576 341.444 125.007 326.693 125.007H311.943C297.192 125.007 297.192 125.007 297.192 139.758V146.831C297.192 161.064 297.192 161.236 311.943 161.236H334.37C349.121 161.236 356.194 169.345 356.194 184.009V205.229C356.194 219.979 349.293 228.26 334.543 228.26H304.783C289.688 228.26 282.442 220.928 282.442 206.178V198.759C282.442 184.009 282.442 184.009 297.192 184.009H310.131C315.652 184.009 315.393 191.6 310.131 191.6C304.956 191.6 297.192 190.565 297.192 198.759C297.192 213.51 297.192 213.51 311.943 213.51H326.693C341.444 213.51 341.444 213.51 341.444 198.759V190.737C341.444 176.159 341.444 176.073 326.693 176.073H304.697C289.946 176.073 282.442 168.913 282.442 154.508V133.116C282.442 118.365 289.515 110.257 304.266 110.257Z" fill="#AE1622"/>
<path fill-rule="evenodd" clip-rule="evenodd" d="M374.395 225.155C377.587 223.775 384.142 219.548 386.04 213.51L417.352 117.416C419.595 110.257 419.336 110.257 430.378 110.257C441.419 110.257 441.16 110.257 443.403 117.416L460.396 169.517C455.221 169.604 449.959 169.431 444.697 169.172L435.122 139.844C432.793 132.253 428.135 132.08 425.547 139.758L401.567 213.51C397.426 228.26 397.426 228.26 381.296 228.26H374.395C372.238 228.26 371.203 226.621 374.395 225.155ZM387.42 168.051C390.957 168.051 394.752 168.137 398.634 168.31L394.149 181.939C387.42 182.111 380.951 182.629 374.913 183.664C373.705 183.836 372.584 182.456 372.929 181.076C374.309 174.089 380.261 168.051 387.42 168.051ZM418.043 169.431C440.039 170.897 463.674 172.709 482.738 169.949C485.584 169.345 486.878 171.674 486.188 173.917C484.204 180.127 478.683 185.303 472.128 185.303C455.048 185.303 434.173 182.974 413.902 182.197L418.043 169.431ZM466.003 187.028L474.629 213.51C476.872 220.583 486.361 225.155 488.345 225.673C490.329 226.19 490.415 228.26 488.517 228.26H479.287C464.45 228.26 464.45 228.26 459.102 213.51L450.218 186.252C455.652 186.597 461 186.856 466.003 187.028Z" fill="#AE1622"/>
<path fill-rule="evenodd" clip-rule="evenodd" d="M513.791 147.434C503.181 158.562 499.558 171.328 503.095 182.283C506.718 193.583 517.587 202.986 534.666 207.73C551.832 212.474 571.499 211.353 589.01 205.919C589.441 205.832 589.873 205.66 590.39 205.487C592.978 204.538 592.806 200.915 590.39 201.347C577.02 204.193 562.528 204.193 549.331 200.57C534.408 196.43 524.488 188.494 520.606 179.264C517.501 171.932 518.363 163.565 523.452 155.801C523.711 150.108 523.884 144.329 523.97 138.808C520.261 141.396 516.81 144.243 513.791 147.434ZM544.5 121.039C544.5 141.482 541.481 169.603 540.963 195.309C533.545 192.117 527.938 187.89 524.143 183.06C525.782 158.907 527.679 132.339 524.919 111.55C524.401 106.892 526.299 105.339 530.44 106.374C537.685 108.703 544.5 114.397 544.5 121.039ZM540.963 211.784C541.222 217.132 541.567 222.222 542.171 226.966C542.688 231.624 540.791 233.263 536.65 232.142C529.404 229.813 522.59 224.119 522.59 217.477C522.59 213.854 522.676 209.973 522.849 205.919C526.385 207.644 530.353 209.196 534.666 210.404C536.737 210.922 538.893 211.439 540.963 211.784ZM546.398 137.601C551.487 135.358 556.921 133.546 562.615 132.252C571.499 130.268 581.16 129.578 590.39 130.355C594.962 130.441 595.135 123.023 590.39 122.074C579.09 121.039 567.1 121.901 555.886 124.662C552.781 125.438 549.762 126.3 546.829 127.336C546.743 130.613 546.57 134.064 546.398 137.601Z" fill="#AE1622"/>
<path fill-rule="evenodd" clip-rule="evenodd" d="M1072.67 123.713C1072.67 154.68 1065.86 193.584 1070.6 224.982C1070.94 227.225 1069.22 229.209 1067.06 229.209H1066.55L1053.09 228.26C1042.82 228.26 1018.07 177.712 1006.94 158.131C1005.3 180.386 1003.4 203.072 1006.34 223.775C1006.68 227.225 1005.3 230.676 1000.47 228.26C995.554 225.931 990.292 220.756 990.292 214.804C990.292 184.354 996.848 146.313 992.621 115.173V115.087L992.535 114.828C992.017 110.429 994.26 108.79 998.055 108.79C1001.07 109.308 1003.83 111.55 1007.89 119.659C1021 146.054 1045.5 201.52 1054.21 213.51C1051.02 181.507 1061.8 150.022 1056.54 114.224V114.138C1056.02 110.86 1060.25 109.308 1063.53 110.688C1068.7 113.276 1072.67 118.106 1072.67 123.713Z" fill="#AE1622"/>
<path fill-rule="evenodd" clip-rule="evenodd" d="M599.102 225.155C602.294 223.775 608.763 219.548 610.747 213.51L641.974 117.416C644.303 110.257 644.044 110.257 654.999 110.257C666.04 110.257 665.868 110.257 668.11 117.416L685.017 169.517C679.928 169.604 674.666 169.431 669.318 169.172L659.829 139.844C657.5 132.253 652.756 132.08 650.255 139.758L626.274 213.51C622.048 228.26 622.134 228.26 605.917 228.26H599.102C596.946 228.26 595.911 226.621 599.102 225.155ZM612.041 168.051C615.664 168.051 619.373 168.137 623.255 168.31L618.856 181.939C612.128 182.111 605.658 182.629 599.62 183.664C598.412 183.836 597.291 182.456 597.55 181.076C598.93 174.089 604.968 168.051 612.041 168.051ZM642.75 169.431C664.66 170.897 688.295 172.709 707.445 169.949C710.292 169.345 711.499 171.674 710.809 173.917C708.911 180.127 703.305 185.303 696.835 185.303C679.669 185.303 658.881 182.974 638.609 182.197L642.75 169.431ZM690.711 187.028L699.337 213.51C701.493 220.583 711.068 225.155 713.052 225.673C715.036 226.19 715.036 228.26 713.138 228.26H703.908C689.158 228.26 689.072 228.26 683.723 213.51L674.925 186.252C680.359 186.597 685.621 186.856 690.711 187.028Z" fill="#AE1622"/>
<path fill-rule="evenodd" clip-rule="evenodd" d="M861.247 225.155C864.439 223.775 870.994 219.548 872.892 213.51L904.205 117.416C906.447 110.257 906.189 110.257 917.23 110.257C928.271 110.257 928.012 110.257 930.255 117.416L947.248 169.517C942.073 169.604 936.811 169.431 931.549 169.172L921.974 139.844C919.645 132.253 914.987 132.08 912.399 139.758L888.419 213.51C884.278 228.26 884.278 228.26 868.148 228.26H861.247C859.091 228.26 858.055 226.621 861.247 225.155ZM874.272 168.051C877.809 168.051 881.604 168.137 885.486 168.31L881.001 181.939C874.272 182.111 867.803 182.629 861.765 183.664C860.557 183.836 859.436 182.456 859.781 181.076C861.161 174.089 867.113 168.051 874.272 168.051ZM904.895 169.431C926.891 170.897 950.526 172.709 969.59 169.949C972.436 169.345 973.73 171.674 973.04 173.917C971.056 180.127 965.535 185.303 958.98 185.303C941.9 185.303 921.025 182.974 900.754 182.197L904.895 169.431ZM952.855 187.028L961.481 213.51C963.724 220.583 973.213 225.155 975.197 225.673C977.181 226.19 977.267 228.26 975.369 228.26H966.139C951.303 228.26 951.303 228.26 945.954 213.51L937.07 186.252C942.504 186.597 947.852 186.856 952.855 187.028Z" fill="#AE1622"/>
<path fill-rule="evenodd" clip-rule="evenodd" d="M241.641 228.26C256.391 228.26 263.378 220.669 263.378 205.919V139.758V125.007C263.378 120.867 264.672 117.847 266.829 115.691C268.468 114.483 270.71 110.257 266.829 110.257H262.516C247.506 110.257 247.42 110.257 247.42 125.007V198.759C247.42 213.51 247.42 213.51 232.67 213.51H220.421C205.584 213.51 205.584 213.51 205.584 198.759V125.007C205.584 110.257 205.584 110.257 190.489 110.257C184.882 110.257 190.92 110.257 185.313 110.257C166.508 110.257 162.454 119.573 163.317 129.234C164.179 138.895 176.256 154.249 176.514 142.863C176.601 138.377 167.888 124.058 181.086 124.058H185.658C189.367 124.058 189.712 127.94 189.712 127.94C189.798 131.908 189.626 135.876 189.626 139.758V205.919C189.626 220.669 196.699 228.26 211.45 228.26H241.641Z" fill="#AE1622"/>
</svg>
