<svg width="183" height="40" viewBox="0 0 183 40" fill="none" xmlns="http://www.w3.org/2000/svg">
<path fill-rule="evenodd" clip-rule="evenodd" d="M120.404 19.735C120.802 20.0881 121.155 20.5883 121.376 21.2798L126.703 37.6699C127.101 38.891 127.057 38.891 128.926 38.891C130.81 38.891 130.78 38.891 131.163 37.6846L133.989 28.9746L136.815 37.6699C137.212 38.891 137.168 38.891 139.052 38.891C140.936 38.891 140.892 38.891 141.274 37.6846L146.602 21.2798C146.823 20.5883 147.338 19.9263 147.515 19.735C147.706 19.5437 148.383 18.7639 147.515 18.7639H147.397C144.865 18.7639 144.865 18.7639 143.953 21.2798L139.861 33.8592C139.464 35.154 138.669 35.1834 138.228 33.8592L135.549 25.6348L134.798 23.3396C134.401 22.0449 133.606 22.0155 133.165 23.3249L132.414 25.6348L129.75 33.8592C129.353 35.154 128.558 35.1834 128.116 33.8592L124.025 21.2798C123.304 18.7639 123.318 18.7639 120.551 18.7639C119.698 18.7639 119.933 19.2936 120.404 19.735Z" fill="white"/>
<path fill-rule="evenodd" clip-rule="evenodd" d="M4.91271 4.55137C5.82522 2.68284 2.02799 0.505355 1.11548 2.07962C0.202962 3.65389 -1.43073 7.59691 2.57255 9.05347C6.57584 10.4953 14.0084 2.62399 18.0264 2.65342C27.1663 2.69756 24.1049 15.4682 18.9831 17.0719C13.8612 18.6756 12.5513 16.1892 11.3886 15.4977C10.2112 14.7767 7.65025 15.2623 6.79661 17.0425C5.94297 18.8375 9.9021 21.5593 12.463 20.8678C16.0101 19.014 20.6462 17.8517 24.5023 17.6457C30.9782 13.7763 32.1704 3.2125 24.1638 0.564206C17.0256 -1.77512 13.7435 3.80102 7.25287 5.61069C4.83912 6.28747 4.0002 6.40517 4.91271 4.55137Z" fill="white"/>
<path fill-rule="evenodd" clip-rule="evenodd" d="M23.0013 18.6463C20.2344 18.7934 16.8639 19.6762 14.4944 20.9121C14.1117 21.1033 14.2589 21.3682 14.4355 21.5447C15.6424 22.6629 16.4077 22.3392 17.2319 23.7811C17.9384 24.8992 18.2327 26.6648 18.8803 27.4592C19.5132 28.2685 20.617 28.9747 21.0438 30.2105C21.4707 31.4464 20.9703 32.7117 21.4118 34.0211C21.8533 35.3306 22.81 36.7724 23.6489 37.9053C25.9302 40.9509 28.0496 40.1858 27.2401 38.6851C26.4159 37.1402 25.5623 34.4772 25.2385 33.006C24.9147 31.5788 25.4298 29.6515 25.0766 28.239C24.7233 26.8119 23.4429 26.2969 23.1779 24.6491C22.9277 23.1484 23.2957 21.0445 23.4429 19.1613C23.4723 18.8376 23.487 18.6169 23.0013 18.6463Z" fill="white"/>
<path fill-rule="evenodd" clip-rule="evenodd" d="M15.6711 15.9244C15.2443 15.8214 14.8763 15.6595 14.6556 15.5271C14.0963 15.174 14.111 15.6742 14.8028 16.0862C15.0677 16.248 15.4356 16.3952 15.833 16.4982C16.4512 16.66 17.1723 16.7041 17.8199 16.5423C18.4822 16.3657 19.0857 15.9538 19.5419 15.4977C19.8363 15.2181 20.0718 14.9092 20.219 14.6443C20.6164 13.9381 20.3809 13.4967 20.0718 14.0705C19.9393 14.306 19.7038 14.6149 19.38 14.9239L18.1585 10.3482C17.7022 8.64154 15.9508 7.25854 14.6997 7.17026C13.4487 7.0967 12.2565 7.39095 12.0799 9.14177C11.9033 10.8926 13.4929 12.0843 14.7144 12.3344L15.6711 15.9244ZM14.111 7.77348C15.3179 7.46452 16.4364 8.20015 17.0988 9.08292C17.1429 9.12706 17.0988 9.20062 17.0399 9.15648C16.3334 8.56797 15.1266 8.00889 14.1257 7.97946C13.9491 7.97946 13.9491 7.80291 14.111 7.77348Z" fill="white"/>
<path fill-rule="evenodd" clip-rule="evenodd" d="M51.8926 18.7639H57.1469C59.6637 18.7639 60.7528 19.941 60.7528 22.4569V23.7957C60.7528 26.3116 60.7528 26.3116 58.236 26.3116H56.1608C55.631 26.3116 55.4543 25.5171 56.1461 25.5171C57.0586 25.5171 58.236 25.5318 58.236 23.7957C58.236 21.2063 58.236 21.2798 55.7193 21.2798H53.2025C50.6857 21.2798 50.6857 21.2798 50.6857 23.7957V25.0022C50.6857 27.4298 50.6857 27.4592 53.2025 27.4592H57.0292C59.5459 27.4592 60.7528 28.8422 60.7528 31.3434V34.9627C60.7528 37.4786 59.5754 38.891 57.0586 38.891H51.9809C49.4053 38.891 48.1689 37.6404 48.1689 35.1245V33.8592C48.1689 31.3434 48.1689 31.3434 50.6857 31.3434H52.8934C53.8354 31.3434 53.7912 32.6381 52.8934 32.6381C52.0103 32.6381 50.6857 32.4615 50.6857 33.8592C50.6857 36.3751 50.6857 36.3751 53.2025 36.3751H55.7193C58.236 36.3751 58.236 36.3751 58.236 33.8592V32.491C58.236 30.0045 58.236 29.9898 55.7193 29.9898H51.9662C49.4494 29.9898 48.1689 28.7686 48.1689 26.3116V22.6628C48.1689 20.1469 49.3758 18.7639 51.8926 18.7639Z" fill="white"/>
<path fill-rule="evenodd" clip-rule="evenodd" d="M63.858 38.3614C64.4026 38.1259 65.5212 37.405 65.845 36.3751L71.1876 19.9851C71.5702 18.7639 71.5261 18.7639 73.41 18.7639C75.2939 18.7639 75.2497 18.7639 75.6324 19.9851L78.5318 28.8716C77.6488 28.8863 76.751 28.8569 75.8532 28.8128L74.2195 23.8104C73.8221 22.5157 73.0273 22.4863 72.5858 23.7957L68.4942 36.3751C67.7877 38.891 67.7877 38.891 65.0355 38.891H63.858C63.4901 38.891 63.3135 38.6115 63.858 38.3614ZM66.0804 28.6215C66.6839 28.6215 67.3315 28.6362 67.9938 28.6656L67.2284 30.9903C66.0804 31.0197 64.9766 31.108 63.9463 31.2845C63.7403 31.3139 63.549 31.0785 63.6078 30.8431C63.8433 29.6514 64.8589 28.6215 66.0804 28.6215ZM71.3053 28.8569C75.0584 29.107 79.0911 29.416 82.3438 28.9452C82.8295 28.8422 83.0503 29.2394 82.9325 29.622C82.594 30.6813 81.6521 31.5641 80.5335 31.5641C77.6193 31.5641 74.0576 31.1668 70.5989 31.0344L71.3053 28.8569ZM79.4885 31.8583L80.9603 36.3751C81.343 37.5816 82.9619 38.3614 83.3005 38.4496C83.639 38.5379 83.6537 38.891 83.3299 38.891H81.7551C79.2236 38.891 79.2236 38.891 78.3111 36.3751L76.7951 31.7259C77.7224 31.7847 78.6349 31.8289 79.4885 31.8583Z" fill="white"/>
<path fill-rule="evenodd" clip-rule="evenodd" d="M87.6428 25.105C85.8325 27.003 85.2143 29.1805 85.8178 31.049C86.4359 32.9764 88.2904 34.58 91.2045 35.3892C94.1334 36.1985 97.4891 36.0072 100.477 35.0803C100.55 35.0656 100.624 35.0361 100.712 35.0067C101.154 34.8449 101.124 34.2269 100.712 34.3005C98.4311 34.786 95.9584 34.786 93.7066 34.1681C91.1604 33.4619 89.4678 32.1083 88.8055 30.534C88.2757 29.2835 88.4228 27.8563 89.2912 26.5322C89.3354 25.5611 89.3648 24.5754 89.3795 23.6337C88.7466 24.0751 88.1579 24.5607 87.6428 25.105ZM92.8824 20.6029C92.8824 24.0898 92.3673 28.8862 92.2789 33.2706C91.0132 32.7262 90.0565 32.0053 89.4089 31.1814C89.6886 27.0618 90.0124 22.5303 89.5414 18.9845C89.4531 18.19 89.7769 17.9252 90.4834 18.1017C91.7197 18.499 92.8824 19.47 92.8824 20.6029ZM92.2789 36.0808C92.3231 36.9929 92.382 37.861 92.485 38.6702C92.5733 39.4647 92.2495 39.7442 91.543 39.553C90.3067 39.1557 89.144 38.1847 89.144 37.0518C89.144 36.4339 89.1587 35.7718 89.1882 35.0803C89.7916 35.3745 90.4686 35.6394 91.2045 35.8453C91.5578 35.9336 91.9257 36.0219 92.2789 36.0808ZM93.2062 23.4278C94.0745 23.0452 95.0018 22.7363 95.9732 22.5156C97.4891 22.1772 99.1375 22.0595 100.712 22.1919C101.492 22.2066 101.522 20.9413 100.712 20.7795C98.7843 20.6029 96.7385 20.75 94.8252 21.2209C94.2953 21.3533 93.7802 21.5004 93.2798 21.677C93.265 22.236 93.2356 22.8245 93.2062 23.4278Z" fill="white"/>
<path fill-rule="evenodd" clip-rule="evenodd" d="M183 21.059C183 26.3409 181.837 32.9763 182.647 38.3318C182.706 38.7143 182.411 39.0527 182.043 39.0527H181.955L179.659 38.8909C177.908 38.8909 173.684 30.2692 171.785 26.9294C171.505 30.7253 171.181 34.5948 171.682 38.1258C171.741 38.7143 171.505 39.3028 170.681 38.8909C169.842 38.4936 168.944 37.6109 168.944 36.5957C168.944 31.4021 170.063 24.9138 169.342 19.6024V19.5877L169.327 19.5436C169.239 18.7932 169.621 18.5137 170.269 18.5137C170.784 18.602 171.255 18.9845 171.947 20.3675C174.184 24.8696 178.364 34.3299 179.85 36.375C179.306 30.9166 181.146 25.5464 180.248 19.4406V19.4259C180.159 18.8668 180.881 18.602 181.44 18.8374C182.323 19.2788 183 20.1027 183 21.059Z" fill="white"/>
<path fill-rule="evenodd" clip-rule="evenodd" d="M102.199 38.3614C102.743 38.1259 103.847 37.405 104.186 36.3751L109.514 19.9851C109.911 18.7639 109.867 18.7639 111.736 18.7639C113.62 18.7639 113.591 18.7639 113.973 19.9851L116.858 28.8716C115.99 28.8863 115.092 28.8569 114.179 28.8128L112.56 23.8104C112.163 22.5157 111.353 22.4863 110.927 23.7957L106.835 36.3751C106.114 38.891 106.129 38.891 103.362 38.891H102.199C101.831 38.891 101.654 38.6115 102.199 38.3614ZM104.407 28.6215C105.025 28.6215 105.658 28.6362 106.32 28.6656L105.569 30.9903C104.421 31.0197 103.317 31.108 102.287 31.2845C102.081 31.3139 101.89 31.0785 101.934 30.8431C102.169 29.6514 103.2 28.6215 104.407 28.6215ZM109.646 28.8569C113.385 29.107 117.417 29.416 120.685 28.9452C121.17 28.8422 121.376 29.2394 121.259 29.622C120.935 30.6813 119.978 31.5641 118.874 31.5641C115.945 31.5641 112.398 31.1668 108.94 31.0344L109.646 28.8569ZM117.829 31.8583L119.301 36.3751C119.669 37.5816 121.303 38.3614 121.641 38.4496C121.98 38.5379 121.98 38.891 121.656 38.891H120.081C117.564 38.891 117.55 38.891 116.637 36.3751L115.136 31.7259C116.063 31.7847 116.961 31.8289 117.829 31.8583Z" fill="white"/>
<path fill-rule="evenodd" clip-rule="evenodd" d="M146.926 38.3614C147.471 38.1259 148.59 37.405 148.913 36.3751L154.256 19.9851C154.639 18.7639 154.594 18.7639 156.478 18.7639C158.362 18.7639 158.318 18.7639 158.701 19.9851L161.6 28.8716C160.717 28.8863 159.819 28.8569 158.922 28.8128L157.288 23.8104C156.89 22.5157 156.096 22.4863 155.654 23.7957L151.563 36.3751C150.856 38.891 150.856 38.891 148.104 38.891H146.926C146.558 38.891 146.382 38.6115 146.926 38.3614ZM149.149 28.6215C149.752 28.6215 150.4 28.6362 151.062 28.6656L150.297 30.9903C149.149 31.0197 148.045 31.108 147.015 31.2845C146.809 31.3139 146.617 31.0785 146.676 30.8431C146.912 29.6514 147.927 28.6215 149.149 28.6215ZM154.374 28.8569C158.127 29.107 162.159 29.416 165.412 28.9452C165.898 28.8422 166.119 29.2394 166.001 29.622C165.662 30.6813 164.72 31.5641 163.602 31.5641C160.688 31.5641 157.126 31.1668 153.667 31.0344L154.374 28.8569ZM162.557 31.8583L164.029 36.3751C164.411 37.5816 166.03 38.3614 166.369 38.4496C166.707 38.5379 166.722 38.891 166.398 38.891H164.823C162.292 38.891 162.292 38.891 161.379 36.3751L159.863 31.7259C160.791 31.7847 161.703 31.8289 162.557 31.8583Z" fill="white"/>
<path fill-rule="evenodd" clip-rule="evenodd" d="M41.2075 38.891C43.7242 38.891 44.9164 37.5963 44.9164 35.0804V23.7957V21.2798C44.9164 20.5736 45.1372 20.0587 45.5051 19.6909C45.7847 19.4849 46.1674 18.7639 45.5051 18.7639H44.7692C42.2083 18.7639 42.1936 18.7639 42.1936 21.2798V33.8592C42.1936 36.3751 42.1936 36.3751 39.6768 36.3751H37.5868C35.0554 36.3751 35.0554 36.3751 35.0554 33.8592V21.2798C35.0554 18.7639 35.0554 18.7639 32.4797 18.7639C31.523 18.7639 32.5533 18.7639 31.5966 18.7639C28.3881 18.7639 27.6964 20.3529 27.8436 22.0008C27.9907 23.6486 30.0512 26.2675 30.0954 24.3254C30.1101 23.5603 28.6236 21.118 30.8755 21.118H31.6555C32.2884 21.118 32.3473 21.7801 32.3473 21.7801C32.362 22.4569 32.3325 23.1336 32.3325 23.7957V35.0804C32.3325 37.5963 33.5394 38.891 36.0562 38.891H41.2075Z" fill="white"/>
</svg>
