<svg width="15" height="21" viewBox="0 0 15 21" fill="none" xmlns="http://www.w3.org/2000/svg">
<path d="M4.27175 11.7538C4.26989 11.7947 4.27785 11.8355 4.29493 11.8725C4.41332 12.0747 4.55771 12.2597 4.72422 12.4225C5.15195 13.1181 5.40488 13.9113 5.46043 14.7315C5.70319 15.5313 6.02634 16.3033 6.42471 17.0348C6.61555 17.4163 6.78579 17.8082 6.93468 18.2088C7.04687 18.526 6.97269 18.885 7.15535 19.1994C7.44037 19.5464 7.80567 19.8148 8.21793 19.9802L9.6486 20.7809C11.0088 21.5407 10.6481 20.1293 10.4877 19.4939C10.2012 18.3541 9.60039 17.239 9.30276 16.1296C9.05705 15.214 9.0246 14.3126 8.83915 13.4093C8.73345 12.8689 8.18269 10.596 7.17019 10.8182C6.62128 10.9398 4.3042 11.1734 4.27175 11.7538Z" fill="#F33E3B"/>
<path d="M3.272 9.62051L3.34061 8.76568C2.45235 7.04081 2.33274 8.50447 1.66145 7.44162C0.614636 5.78229 3.00126 5.89534 3.43797 5.77376C3.83255 5.72339 4.23307 5.78434 4.59631 5.95005C4.95955 6.11577 5.27172 6.37994 5.49914 6.71407C5.70127 7.15004 6.12037 7.63634 6.32158 8.15114L6.36608 8.36294C6.40798 8.60097 6.36565 8.84651 6.24669 9.05542C6.12772 9.26434 5.93992 9.42294 5.71704 9.50274L4.07311 10.0071C3.91722 10.0311 3.75788 10.0072 3.61527 9.93837C3.47266 9.86955 3.3532 9.75892 3.272 9.62051Z" fill="#F33E3B"/>
<path d="M1.10079 2.98525C-0.505123 4.19247 1.67751 5.70837 2.11608 5.39968C5.89722 2.74019 9.07753 2.27575 10.09 4.3549C10.6176 5.44054 9.39277 6.46917 7.77944 7.28696L1.1147 9.66721C0.837738 9.75555 0.588713 9.91778 0.393181 10.1373C0.197649 10.3568 0.0626539 10.6256 0.00205597 10.9162C-0.0079773 11.025 0.0189188 11.134 0.078204 11.2248C0.137489 11.3157 0.225538 11.3828 0.327506 11.4149C0.808724 11.5944 2.13833 12.3314 2.40722 11.8898C2.60074 11.5487 2.87416 11.2625 3.20276 11.0568C3.60514 10.8506 4.03556 10.7078 4.47952 10.6332C5.63569 10.3507 6.80729 10.1391 7.98806 9.99965C8.66492 9.93127 9.36773 9.90466 10.0631 9.80968C11.321 9.67826 12.5266 9.22597 13.5698 8.49417C14.1336 8.0735 14.5608 7.48891 14.7961 6.81631C15.0314 6.14372 15.0639 5.4142 14.8892 4.72247C13.2564 -3.85722 2.93944 1.60422 1.10079 2.98525Z" fill="#F33E3B"/>
</svg>
